<svg width="32" height="32" viewBox="0 0 32 32" fill="none" xmlns="http://www.w3.org/2000/svg">
  <path d="M16 4C10 4 6 8 6 13c0 3 1.5 5.5 3.5 7.5l-1 3.5 4-2A9 9 0 0016 23c5 0 9-4 9-9s-4-9-9-9z" fill="#D2EFE2" stroke="#1A1A1A" stroke-width="1.5" stroke-linejoin="round"/>
  <path d="M16 4c6 0 10 4 10 9 0 3-1.5 5.5-3.5 7.5l1 3.5-4-2A9 9 0 0116 23" fill="#C8DFF7" stroke="#1A1A1A" stroke-width="1.5" stroke-linejoin="round"/>
  <circle cx="12" cy="10" r="1.2" fill="#3BCB8A" stroke="#1A1A1A" stroke-width="0.8"/>
  <circle cx="20" cy="10" r="1.2" fill="#6B9FD4" stroke="#1A1A1A" stroke-width="0.8"/>
  <circle cx="16" cy="14" r="1.2" fill="#A07CB8" stroke="#1A1A1A" stroke-width="0.8"/>
  <circle cx="12" cy="17" r="1" fill="#3BCB8A" stroke="#1A1A1A" stroke-width="0.8"/>
  <circle cx="20" cy="17" r="1" fill="#6B9FD4" stroke="#1A1A1A" stroke-width="0.8"/>
  <path d="M12 10l4 4" stroke="#1A1A1A" stroke-width="0.8" opacity="0.5"/>
  <path d="M20 10l-4 4" stroke="#1A1A1A" stroke-width="0.8" opacity="0.5"/>
  <path d="M12 17l4-3" stroke="#1A1A1A" stroke-width="0.8" opacity="0.4"/>
  <path d="M20 17l-4-3" stroke="#1A1A1A" stroke-width="0.8" opacity="0.4"/>
  <path d="M12 17l-2-4" stroke="#1A1A1A" stroke-width="0.8" opacity="0.3"/>
  <path d="M20 17l2-4" stroke="#1A1A1A" stroke-width="0.8" opacity="0.3"/>
  <circle cx="16" cy="14" r="0.5" fill="#1A1A1A"/>
</svg>
